<?xml version="1.0" standalone="no"?>
<!DOCTYPE svg PUBLIC "-//W3C//DTD SVG 20010904//EN"
 "http://www.w3.org/TR/2001/REC-SVG-20010904/DTD/svg10.dtd">
<svg version="1.0" xmlns="http://www.w3.org/2000/svg"
 width="1080.000000pt" height="1080.000000pt" viewBox="0 0 1080.000000 1080.000000"
 preserveAspectRatio="xMidYMid meet">
<metadata>
Created by potrace 1.14, written by Peter Selinger 2001-2017
</metadata>
<g transform="translate(0.000000,1080.000000) scale(0.100000,-0.100000)"
fill="#000000" stroke="none">
<path d="M5030 10790 c-965 -76 -1840 -374 -2620 -893 -74 -50 -146 -98 -160
-109 -166 -125 -358 -276 -390 -308 -3 -3 -25 -23 -50 -44 -25 -21 -94 -87
-155 -146 -236 -229 -394 -407 -572 -645 -126 -168 -363 -527 -363 -551 0 -3
-8 -18 -19 -32 -60 -86 -247 -476 -328 -687 -173 -446 -291 -918 -339 -1360
-3 -27 -7 -63 -9 -80 -28 -198 -27 -833 1 -1080 108 -963 420 -1797 959 -2565
194 -277 401 -519 660 -770 621 -604 1370 -1042 2220 -1299 149 -45 395 -104
519 -125 16 -3 52 -10 80 -15 57 -11 86 -16 231 -36 237 -32 392 -41 705 -42
146 0 317 3 380 8 219 16 558 63 720 100 25 6 56 13 70 15 55 11 271 67 365
95 903 273 1674 739 2330 1408 850 868 1377 1992 1510 3226 28 265 28 834 -1
1100 -6 50 -48 349 -59 415 -21 122 -89 403 -139 575 -281 953 -845 1835
-1602 2505 -91 80 -108 95 -204 171 -732 582 -1636 981 -2525 1114 -127 19
-250 34 -320 40 -44 4 -91 9 -105 12 -43 8 -690 11 -790 3z"/>
</g>
</svg>
